<svg width="20" height="20" viewBox="0 0 20 20" fill="none" xmlns="http://www.w3.org/2000/svg">
    <path d="m7 5c0 0-2.5 1.3 0 1m-4-2h12v2h-12zm12 0h8v2h-8zm-13 2h22v2h-22zm2 2h2v16h-2zm4-6h2v2h-2zm1-1h8v1h-8zm1-1h6v1h-6zm6 2h2v2h-2zm4 6h2v16h-2zm-15 16h16v1h-16zm1 1h14v1h-14zm2-15h2v12h-2zm4 0h2v12h-2zm4 0h2v12h-2zm-25-12h1v1h-1zm12 6h20v3h-20zm20 2h1v2h-1zm-21 0h21v2h-21zm6-4h2v2h-2zm1-1h8v1h-8zm7 1h2v2h-2zm-6-2h6v1h-6zm10 8h2v16h-2zm-15 16h16v1h-16zm-1-16h2v16h-2zm4 2h2v12h-2zm4 0h2v12h-2zm4 0h2v12h-2zm-10 15h14v1h-14z" stroke="#ECEDEE" stroke-width="1.66667" stroke-linecap="round" stroke-linejoin="round"/>
</svg>