<svg id="eyU5PTN9L4b1" xmlns="http://www.w3.org/2000/svg" xmlns:xlink="http://www.w3.org/1999/xlink" viewBox="0 0 300 300" shape-rendering="geometricPrecision" text-rendering="geometricPrecision"><rect width="26.133132" height="217.950326" rx="0" ry="0" transform="translate(31.920054 48.524001)" fill="#fff" stroke-width="0"/><rect width="269.693929" height="30.314434" rx="0" ry="0" transform="translate(13.104199 37.025422)" fill="#fff" stroke-width="0"/><rect width="22.997157" height="199.134471" rx="0" ry="0" transform="translate(241.507777 67.339856)" fill="#fff" stroke-width="0"/><rect width="208.019735" height="18.293193" rx="0" ry="0" transform="translate(44.98662 266.996989)" fill="#fff" stroke-width="0"/><rect width="183.454591" height="8.362603" rx="0" ry="0" transform="translate(58.053187 285.290183)" fill="#fff" stroke-width="0"/><rect width="241.470145" height="27.70112" rx="0" ry="0" transform="translate(31.920055 24.481519)" fill="#fff" stroke-width="0"/><rect width="9.407928" height="13.85056" rx="0" ry="0" transform="translate(22.512126 24.481519)" fill="#fff" stroke-width="0"/><rect width="14.111892" height="11.498579" rx="0" ry="0" transform="translate(89.935608 12.982941)" fill="#fff" stroke-width="0"/><rect width="13.589229" height="11.498579" rx="0" ry="0" transform="translate(195.513465 12.982942)" fill="#fff" stroke-width="0"/><rect width="105.316526" height="8.362603" rx="0" ry="0" transform="translate(96.991554 4.620339)" fill="#fff" stroke-width="0"/><rect width="89.897977" height="8.801641" rx="0" ry="0" transform="translate(105.615489 0)" fill="#fff" stroke-width="0"/><rect width="24" height="150" rx="0" ry="0" transform="translate(80 90)" fill="#fff" stroke-width="0"/><rect width="24" height="150" rx="0" ry="0" transform="translate(138 90)" fill="#fff" stroke-width="0"/><rect width="24" height="150" rx="0" ry="0" transform="translate(192 90)" fill="#fff" stroke-width="0"/></svg>
